# xmcd
#
# Track frame offsets:
# 150
# 9837
# 18906
# 29547
# 39463
# 47838
# 59761
# 70962
# 81735
# 91369
# 102872
# 114986
# 125660
# 137621
# 147972
# 169420
# 180704
# 190195
# 199116
# 209550
#
# Disc length: 2948 seconds
#
#
# Revision: 0
# Processed by: cddbd v1.5.2PL0 Copyright (c) Steve Scherf et al.
# Submitted via: FreeRIP 2.90 
#
DISCID=280b8214
DTITLE=Various Artist - 50 Years of Dueling Banjos
DYEAR=2005
DGENRE=Bluegrass
TTITLE0=Arthur "Guitar Boogie" Smith -  Jeff Whittington - Dueling Banjos
TTITLE1=Pinnacle Boys - Sitting on Top of the World
TTITLE2=Don Reno - Dear Old Dixie
TTITLE3=L. Flatt -  Nashville Grass - Ballad of Jed Clampett
TTITLE4=Benny Martin - Foggy Mountain Breakdown
TTITLE5=Osbourne Brothers - Kentucky Waltz
TTITLE6=David Dick - Fast as You
TTITLE7=L. Flatt -  Nashville Grass - Good Times Are Past and Gone
TTITLE8=Josh Graves - Earl's Breakdown
TTITLE9=Arthur "Guitar Boogie" Smith - Battling Banjos Polka
TTITLE10=Jimmy Martin and the Sunny Mountain Boys - Sunny Side of the Mountain
TTITLE11=Mac Wiseman - Train 45
TTITLE12=The Bluegrass Cardinals - Blue Is the Color of Lonesome
TTITLE13=L. Flatt -  Nashville Grass - Shuckin' the Corn
TTITLE14=Larry Cordle -  Lonesome Standard Time - Ballad of Curtis Loew
TTITLE15=Arthur "Guitar Boogie" Smith - Yakety Sax
TTITLE16=L. Flatt -  Nashville Grass - Foggy Mountain Special
TTITLE17=Ralph Smith - Bury Me Beneath the Willow
TTITLE18=Bill Harrell -  Don Reno - Bringin' in the Georgia Mail
TTITLE19=Don Reno - Feudin' Banjos
EXTD=CMH Records, Inc.
EXTT0=
EXTT1=
EXTT2=
EXTT3=
EXTT4=
EXTT5=
EXTT6=
EXTT7=
EXTT8=
EXTT9=
EXTT10=
EXTT11=
EXTT12=
EXTT13=
EXTT14=
EXTT15=
EXTT16=
EXTT17=
EXTT18=
EXTT19=
PLAYORDER=
